#!OML:ASF F:\VICON\USERDATA\INSTALL\rory3\rory3.ASF
:FULLY-SPECIFIED
:DEGREES
758
root 4.53923 17.3784 2.49859 5.66815 -10.5933 -5.48484
lowerback 11.9624 -0.14639 3.90029
upperback 5.07821 0.235522 1.22877
thorax -1.37931 0.141065 -0.949455
lowerneck -12.301 -0.448487 -2.87065
upperneck 35.9619 -0.153435 0.418689
head 14.4101 -0.449319 0.644355
rclavicle 9.93923e-017 -1.74931e-014
rhumerus -31.999 -4.05484 -15.9108
rradius 34.0546
rwrist 10.3127
rhand -21.3779 -44.975
rfingers 7.12502
rthumb 5.00948 -74.8958
lclavicle 9.93923e-017 -1.74931e-014
lhumerus -30.5898 2.50369 12.66
lradius 28.9257
lwrist 10.9535
lhand -25.6072 -32.3728
lfingers 7.12502
lthumb 0.925097 -2.39504
rfemur -99.0986 2.20468 28.3553
rtibia 97.1455
rfoot 47.8866 3.82002
rtoes -6.25421
lfemur -18.5547 0.865232 -23.4292
ltibia 30.6136
lfoot -14.3364 7.1672
ltoes 12.0199
759
root 4.53855 17.3784 2.49787 5.69024 -10.6616 -5.39178
lowerback 11.9296 -0.117879 3.79235
upperback 5.06697 0.259586 1.2061
thorax -1.37315 0.151977 -0.915416
lowerneck -12.3022 -0.441262 -2.87084
upperneck 35.953 -0.138483 0.407623
head 14.406 -0.444282 0.642157
rclavicle 1.0138e-014 7.95139e-015
rhumerus -32.0297 -4.08242 -15.8842
rradius 34.0428
rwrist 10.3945
rhand -21.7351 -44.7377
rfingers 7.12502
rthumb 4.66452 -74.6663
lclavicle 1.0138e-014 7.95139e-015
lhumerus -30.653 2.45536 12.658
lradius 28.5956
lwrist 10.298
lhand -25.5504 -35.2383
lfingers 7.12502
lthumb 0.98 -5.26077
rfemur -99.1473 2.2314 28.277
rtibia 97.1316
rfoot 47.9578 3.61652
rtoes -6.1082
lfemur -18.5755 0.892407 -23.5291
ltibia 30.575
lfoot -14.3374 7.16123
ltoes 12.2565
760
root 4.538 17.3772 2.4984 5.70858 -10.6697 -5.335
lowerback 11.9386 -0.108047 3.73846
upperback 5.06374 0.266861 1.18808
thorax -1.38151 0.154983 -0.904838
lowerneck -12.3775 -0.445037 -2.81665
upperneck 35.9546 -0.132901 0.343833
head 14.4238 -0.442932 0.607325
rclavicle -1.87355e-014 -2.28602e-014
rhumerus -32.0709 -4.07136 -15.8993
rradius 34.1399
rwrist 10.2631
rhand -21.773 -44.7086
rfingers 7.12502
rthumb 4.62796 -74.638
lclavicle -1.87355e-014 -2.28602e-014
lhumerus -30.9225 2.26403 12.6903
lradius 28.5457
lwrist 9.78666
lhand -25.902 -37.6193
lfingers 7.12502
lthumb 0.640421 -7.64052
rfemur -99.1921 2.21626 28.2165
rtibia 97.1509
rfoot 48.0148 3.29765
rtoes -5.72089
lfemur -18.5958 0.905945 -23.5825
ltibia 30.5398
lfoot -14.3231 7.07077
ltoes 12.5646
761
root 4.53796 17.3789 2.49858 5.70408 -10.626 -5.36165
lowerback 11.9583 -0.1331 3.78777
upperback 5.07705 0.239843 1.1941
thorax -1.37899 0.142229 -0.922832
lowerneck -12.4211 -0.440561 -2.85714
upperneck 35.9095 -0.130718 0.393095
head 14.4128 -0.440258 0.634908
rclavicle 1.6847e-014 4.37326e-015
rhumerus -31.9682 -4.3032 -15.8434
rradius 33.9685
rwrist 10.4095
rhand -21.7258 -44.654
rfingers 7.12502
rthumb 4.67352 -74.5824
lclavicle 1.6847e-014 4.37326e-015
lhumerus -30.6787 2.2752 12.7123
lradius 28.6404
lwrist 10.1666
lhand -25.8208 -35.7744
lfingers 7.12502
lthumb 0.718863 -5.79584
rfemur -99.164 2.1703 28.2502
rtibia 97.1561
rfoot 47.9665 3.39567
rtoes -5.71649
lfemur -18.5925 0.91342 -23.5422
ltibia 30.4996
lfoot -14.2783 6.95813
ltoes 12.7573
762
root 4.53738 17.3788 2.49945 5.7123 -10.6079 -5.32018
lowerback 11.9712 -0.163288 3.75095
upperback 5.03022 0.198662 1.20024
thorax -1.43706 0.119957 -0.890601
lowerneck -12.2702 -0.405601 -2.9071
upperneck 35.8197 -0.0663994 0.379524
head 14.3355 -0.420476 0.64777
rclavicle -5.71506e-015 1.92821e-014
rhumerus -31.9622 -4.13363 -15.8521
rradius 34.1338
rwrist 10.3779
rhand -21.348 -45.1957
rfingers 7.12502
rthumb 5.03837 -75.1158
lclavicle -5.71506e-015 1.92821e-014
lhumerus -30.8212 2.19147 12.6803
lradius 29.0044
lwrist 10.7224
lhand -25.1297 -34.214
lfingers 7.12502
lthumb 1.38631 -4.23875
rfemur -99.1852 2.14309 28.2295
rtibia 97.1545
rfoot 47.9324 3.72572
rtoes -6.15362
lfemur -18.5945 0.917155 -23.5921
ltibia 30.4852
lfoot -14.2641 6.98045
ltoes 12.527
763
root 4.53722 17.378 2.5001 5.72782 -10.6067 -5.28479
lowerback 11.9677 -0.180648 3.72423
upperback 4.99071 0.174179 1.19886
thorax -1.47767 0.106545 -0.873931
lowerneck -12.1931 -0.383438 -2.85751
upperneck 35.821 -0.00932114 0.263434
head 14.3176 -0.40514 0.600274
rclavicle -3.926e-015 -2.40529e-014
rhumerus -32.034 -3.73112 -15.9367
rradius 34.5215
rwrist 10.1094
rhand -20.7567 -46.0242
rfingers 7.12502
rthumb 5.60922 -75.9299
lclavicle -3.926e-015 -2.40529e-014
lhumerus -31.0094 2.09353 12.6271
lradius 29.1709
lwrist 10.9471
lhand -24.8946 -34.3398
lfingers 7.12502
lthumb 1.61335 -4.36616
rfemur -99.2171 2.12607 28.2145
rtibia 97.1677
rfoot 47.9185 3.83762
rtoes -6.6608
lfemur -18.5956 0.889048 -23.6346
ltibia 30.494
lfoot -14.2853 7.05379
ltoes 12.3284
764
root 4.53749 17.3774 2.5 5.71236 -10.6092 -5.35875
lowerback 12.0267 -0.190465 3.81005
upperback 4.99747 0.173523 1.2117
thorax -1.50195 0.10665 -0.908768
lowerneck -12.3043 -0.388095 -2.83793
upperneck 35.909 -0.0135308 0.252393
head 14.3839 -0.407031 0.591888
rclavicle 2.00276e-014 4.17448e-015
rhumerus -32.006 -3.61132 -15.9657
rradius 34.5806
rwrist 10.0096
rhand -20.29 -46.4894
rfingers 7.12502
rthumb 6.05982 -76.3827
lclavicle 2.00276e-014 4.17448e-015
lhumerus -30.9868 2.21437 12.5245
lradius 29.2945
lwrist 11.2047
lhand -24.9875 -33.1522
lfingers 7.12502
lthumb 1.52367 -3.1779
rfemur -99.1813 2.12947 28.3003
rtibia 97.2127
rfoot 47.9093 3.79685
rtoes -6.81784
lfemur -18.551 0.940617 -23.5588
ltibia 30.4872
lfoot -14.2974 7.03092
ltoes 12.0932
765
root 4.53837 17.378 2.5007 5.67952 -10.5903 -5.4492
lowerback 12.1101 -0.19506 3.93146
upperback 4.99622 0.185578 1.23188
thorax -1.54695 0.112965 -0.957678
lowerneck -12.3045 -0.399287 -2.86437
upperneck 35.9244 -0.0329594 0.281965
head 14.3915 -0.414998 0.605755
rclavicle 3.24019e-014 1.17283e-014
rhumerus -32.0153 -3.59869 -15.9194
rradius 34.5415
rwrist 9.96982
rhand -20.1526 -46.31
rfingers 7.12502
rthumb 6.19252 -76.1995
lclavicle 3.24019e-014 1.17283e-014
lhumerus -30.7985 2.43155 12.3938
lradius 29.2636
lwrist 11.4637
lhand -24.94 -30.4149
lfingers 7.12502
lthumb 1.56949 -0.440932
rfemur -99.1228 2.11828 28.389
rtibia 97.2561
rfoot 47.9729 3.77336
rtoes -6.47195
lfemur -18.4827 0.990408 -23.4683
ltibia 30.4618
lfoot -14.2801 6.98136
ltoes 11.6778
766
root 4.53897 17.3811 2.50084 5.65731 -10.6089 -5.39177
lowerback 12.1286 -0.164711 3.8975
upperback 4.96876 0.223563 1.22111
thorax -1.58423 0.130732 -0.95489
lowerneck -12.1838 -0.390428 -2.75404
upperneck 35.9617 0.0125038 0.0959513
head 14.3808 -0.405658 0.51723
rclavicle 9.74045e-015 -1.63003e-014
rhumerus -32.0524 -3.49569 -15.8695
rradius 34.4826
rwrist 9.85189
rhand -20.2435 -46.049
rfingers 7.12502
rthumb 6.10477 -75.941
lclavicle 9.74045e-015 -1.63003e-014
lhumerus -30.5517 2.61105 12.3079
lradius 28.9821
lwrist 11.2908
lhand -24.8708 -27.9104
lfingers 7.12502
lthumb 1.63631 2.06307
rfemur -99.1021 2.11194 28.3239
rtibia 97.2543
rfoot 47.98 3.97872
rtoes -6.47527
lfemur -18.4501 0.915797 -23.5313
ltibia 30.4362
lfoot -14.2647 7.02618
ltoes 11.6112
767
root 4.53819 17.3819 2.50049 5.64492 -10.7251 -5.26658
lowerback 12.1087 -0.096018 3.76608
upperback 4.95388 0.298166 1.19059
thorax -1.58683 0.166523 -0.922589
lowerneck -12.0677 -0.369001 -2.63699
upperneck 36.0113 0.0728909 -0.0838367
head 14.3767 -0.388281 0.432358
rclavicle -6.60959e-015 1.98785e-015
rhumerus -32.018 -3.41262 -15.8351
rradius 34.2888
rwrist 9.80181
rhand -20.7016 -45.9336
rfingers 7.12502
rthumb 5.66246 -75.838
lclavicle -6.60959e-015 1.98785e-015
lhumerus -30.2851 2.66672 12.3033
lradius 28.5977
lwrist 11.0878
lhand -25.2155 -28.1322
lfingers 7.12502
lthumb 1.30345 1.84359
rfemur -99.1225 2.19532 28.1744
rtibia 97.2867
rfoot 47.8635 4.30858
rtoes -6.78546
lfemur -18.4504 0.916466 -23.6701
ltibia 30.4099
lfoot -14.2712 7.07101
ltoes 11.9594
768
root 4.5377 17.3799 2.50058 5.63979 -10.7965 -5.21793
lowerback 12.1153 -0.0543711 3.73027
upperback 4.97046 0.348296 1.17654
thorax -1.57124 0.191537 -0.923644
lowerneck -12.0021 -0.373461 -2.6968
upperneck 35.9123 0.0601471 -0.0255928
head 14.3159 -0.3923 0.464873
rclavicle -1.54058e-015 1.70955e-014
rhumerus -32.0183 -3.40386 -15.7923
rradius 34.1544
rwrist 9.83942
rhand -21.3611 -45.514
rfingers 7.12502
rthumb 5.02571 -75.4344
lclavicle -1.54058e-015 1.70955e-014
lhumerus -30.0244 2.70704 12.3075
lradius 28.1778
lwrist 10.937
lhand -25.9664 -30.0461
lfingers 7.12502
lthumb 0.578243 -0.0671527
rfemur -99.1653 2.25613 28.1008
rtibia 97.3666
rfoot 47.7957 4.34078
rtoes -6.93835
lfemur -18.4473 0.967911 -23.7232
ltibia 30.3798
lfoot -14.2723 7.05908
ltoes 12.143
769
root 4.53752 17.3789 2.50062 5.64861 -10.776 -5.20909
lowerback 12.1282 -0.0563672 3.76285
upperback 4.9653 0.34995 1.16854
thorax -1.58314 0.192558 -0.950533
lowerneck -12.0068 -0.395276 -2.73018
upperneck 35.8551 0.0358121 -0.0198031
head 14.2911 -0.40544 0.469443
rclavicle -3.38928e-014 1.94809e-014
rhumerus -32.0704 -3.36162 -15.7614
rradius 34.1534
rwrist 9.85218
rhand -21.5601 -45.1947
rfingers 7.12502
rthumb 4.83351 -75.1195
lclavicle -3.38928e-014 1.94809e-014
lhumerus -29.8671 2.86966 12.2331
lradius 27.6896
lwrist 10.178
lhand -26.2466 -32.6471
lfingers 7.12502
lthumb 0.307577 -2.66756
rfemur -99.2118 2.23122 28.0898
rtibia 97.4263
rfoot 47.8419 4.13764
rtoes -6.80231
lfemur -18.4519 0.958986 -23.7316
ltibia 30.3767
lfoot -14.267 7.06532
ltoes 11.9091
770
root 4.53551 17.3772 2.50102 5.66454 -10.7991 -5.21356
lowerback 12.115 -0.0528484 3.77599
upperback 4.93537 0.356311 1.16072
thorax -1.60675 0.195293 -0.966918
lowerneck -12.1085 -0.424238 -2.73685
upperneck 36.0034 0.00314848 -0.032342
head 14.3839 -0.424199 0.460495
rclavicle -1.14301e-015 -1.0138e-014
rhumerus -32.104 -3.19349 -15.7946
rradius 34.3396
rwrist 9.64426
rhand -21.2982 -45.5489
rfingers 7.12502
rthumb 5.08643 -75.4679
lclavicle -1.14301e-015 -1.0138e-014
lhumerus -29.8148 3.02962 12.0861
lradius 27.3006
lwrist 9.47707
lhand -26.0223 -34.9563
lfingers 7.12502
lthumb 0.524249 -4.97722
rfemur -99.2632 2.26235 28.0955
rtibia 97.4794
rfoot 47.7725 4.14652
rtoes -6.65848
lfemur -18.476 1.02205 -23.7286
ltibia 30.4223
lfoot -14.2766 7.06959
ltoes 11.7443
771
root 4.5329 17.3732 2.50136 5.66824 -10.82 -5.18099
lowerback 12.1717 -0.0525596 3.72844
upperback 4.87496 0.356023 1.14642
thorax -1.70105 0.192744 -0.955447
lowerneck -12.2585 -0.420411 -2.66238
upperneck 36.2582 0.0215353 -0.109785
head 14.5373 -0.42041 0.418239
rclavicle 2.13694e-015 1.82882e-014
rhumerus -32.082 -3.07305 -15.8144
rradius 34.4717
rwrist 9.46966
rhand -20.844 -45.9512
rfingers 7.12502
rthumb 5.52496 -75.8591
lclavicle 2.13694e-015 1.82882e-014
lhumerus -29.8808 2.98529 11.9603
lradius 27.3143
lwrist 9.56529
lhand -25.8172 -35.1861
lfingers 7.12502
lthumb 0.722337 -5.20763
rfemur -99.3445 2.2893 28.0765
rtibia 97.5495
rfoot 47.6932 4.31396
rtoes -6.70626
lfemur -18.5147 1.0815 -23.7592
ltibia 30.4925
lfoot -14.2905 7.04663
ltoes 11.9656
